<svg aria-hidden="true" style="position: absolute; width: 0; height: 0; overflow: hidden;" version="1.1" xmlns="http://www.w3.org/2000/svg" xmlns:xlink="http://www.w3.org/1999/xlink">
<defs>
<symbol id="icon-amazon" viewBox="0 0 106 32">
<path d="M22.783 7.544v10.274c0 0.347-0.281 0.628-0.628 0.628v0h-3.243c-0.347-0-0.628-0.281-0.628-0.628v-16.711c0-0.347 0.281-0.628 0.628-0.628v0h3.001c0.347 0 0.628 0.281 0.628 0.628v0 2.353s1.073-3.357 4.257-3.357c0 0 3.149-0.381 4.43 3.115 0 0 1.073-3.115 4.326-3.115 0 0 4.838-0.288 4.838 4.718l0.037 2.757v10.274c0 0.347-0.281 0.628-0.628 0.628h-3.243c-0.347-0-0.628-0.281-0.628-0.628v-0l-0.030-11.208c0.092-2.538-1.961-2.353-1.961-2.353-2.584 0.046-2.335 3.288-2.335 3.288v10.274c0 0.347-0.281 0.628-0.628 0.628v0h-3.243c-0.347-0-0.628-0.281-0.628-0.628v-10.955s0.19-2.63-2.118-2.63c0 0-2.284-0.3-2.203 3.276zM106.383 7.513v10.273c-0 0.347-0.281 0.628-0.628 0.628h-0l-3.373 0.065c-0.347-0-0.628-0.281-0.628-0.628v-10.954s0.19-2.63-2.117-2.63c0 0-2.204-0.109-2.204 4.015v9.535c-0 0.347-0.281 0.628-0.628 0.628h-3.243c-0.347-0-0.628-0.281-0.628-0.628v-16.711c0-0.347 0.281-0.628 0.628-0.628h3.001c0.347 0 0.628 0.281 0.628 0.628v0 2.353s1.073-3.357 4.257-3.357c0 0 3.411-0.517 4.559 3.050 0-0 0.376 0.736 0.376 4.36zM82.966 0.034c-4.147 0-7.51 3.495-7.51 9.379 0 5.18 2.596 9.379 7.51 9.379 4.637 0 7.51-4.199 7.51-9.379 0-5.779-3.362-9.379-7.51-9.379zM85.584 9.621c0 2.215-0.277 3.392-0.277 3.392-0.394 2.341-2.094 2.345-2.344 2.332-0.27 0.011-1.985-0.014-2.339-2.332 0 0-0.277-1.177-0.277-3.392v-0.369c0-2.215 0.277-3.392 0.277-3.392 0.355-2.319 2.069-2.343 2.339-2.333 0.251-0.012 1.95-0.009 2.344 2.333 0 0 0.277 1.177 0.277 3.392zM73.574 3.437v-2.398c-0-0.347-0.281-0.628-0.628-0.628h-10.72c-0.347 0-0.628 0.281-0.628 0.628v0 2.379c0 0.347 0.281 0.628 0.628 0.628h5.592l-6.619 9.602s-0.261 0.389-0.252 0.819v2.921s-0.043 1.001 1.093 0.42c0 0 2.017-1.219 5.4-1.219 0 0 3.34-0.042 5.567 1.324 0 0 0.924 0.42 0.924-0.504v-2.542s0.084-0.673-0.798-1.093c0 0-2.563-1.408-5.925-1.177zM15.781 15.457l-1.015-1.545c-0.323-0.577-0.3-1.223-0.3-1.223v-7.129c0.138-6.16-6.691-5.629-6.691-5.629-6.071 0-6.968 4.725-6.968 4.725-0.253 0.95 0.483 0.973 0.483 0.973l2.967 0.301s0.506 0.116 0.69-0.486c0 0 0.391-2.061 2.575-2.061 2.377 0 2.353 2.040 2.353 2.040v1.708c-4.745 0.159-6.945 1.476-6.945 1.476-2.93 1.661-2.746 4.961-2.746 4.961 0 5.376 5.122 5.145 5.122 5.145 3.276 0 5.214-2.399 5.214-2.399 0.577 1.016 1.638 1.984 1.638 1.984 0.531 0.576 1.084 0.092 1.084 0.092l2.4-2.053c0.53-0.393 0.138-0.877 0.138-0.877zM6.905 15.391c-1.541 0-2.114-1.531-1.858-3.036s1.586-2.688 4.828-2.653v0.915c0.115 3.997-1.687 4.774-2.97 4.774zM58.879 15.457l-1.015-1.545c-0.323-0.577-0.3-1.223-0.3-1.223v-7.129c0.138-6.16-6.691-5.629-6.691-5.629-6.071 0-6.968 4.725-6.968 4.725-0.253 0.95 0.483 0.973 0.483 0.973l2.967 0.301s0.506 0.116 0.69-0.486c0 0 0.391-2.061 2.575-2.061 2.377 0 2.352 2.040 2.352 2.040v1.708c-4.745 0.159-6.945 1.476-6.945 1.476-2.93 1.661-2.746 4.961-2.746 4.961 0 5.376 5.122 5.145 5.122 5.145 3.276 0 5.214-2.399 5.214-2.399 0.577 1.016 1.638 1.984 1.638 1.984 0.531 0.576 1.085 0.092 1.085 0.092l2.399-2.053c0.531-0.393 0.139-0.877 0.139-0.877zM50.003 15.391c-1.541 0-2.114-1.531-1.858-3.036s1.586-2.688 4.827-2.653v0.915c0.115 3.997-1.686 4.774-2.969 4.774z"></path>
<path fill="#ACAAAA" d="M67.045 28.951s-0.271 0.472 0.062 0.578c0 0 0.377 0.147 0.846-0.289 0 0 3.424-2.991 3.507-8.438 0 0 0.025-0.68-0.248-0.866 0 0-1.073-0.949-4.931-0.66 0 0-3.363 0.227-5.199 1.857 0 0-0.165 0.144-0.165 0.33 0 0-0.040 0.401 0.97 0.227 0 0 3.363-0.475 5.364-0.227 0 0 1.032 0.124 1.321 0.475 0 0 0.475 0.392 0.227 1.691 0 0.001-0.681 3.301-1.754 5.323z"></path>
<path fill="#ACAAAA" d="M66.367 23.726s0.502 0.651-0.308 1.212c0 0-8.657 6.924-23.192 6.924 0 0-14.962 0.738-27.456-10.613 0 0-0.438-0.385-0.166-0.742 0 0 0.243-0.329 0.872 0.029 0 0 11.753 7.323 27.188 7.323 0 0 10.728 0.415 21.734-4.291 0 0 0.877-0.454 1.328 0.158z"></path>
</symbol>
<symbol id="icon-ibooks" viewBox="0 0 32 32">
<path fill="#ACAAAA" d="M8.722 28h14.556c2.608 0 4.722-2.114 4.722-4.722v-14.556c0-2.608-2.114-4.722-4.722-4.722h-14.556c-2.608 0-4.722 2.114-4.722 4.722v14.556c0 2.608 2.114 4.722 4.722 4.722z"></path>
<path fill="#fff" d="M15.333 22.667c-1.565-2.903-5.333-3.333-8-0.667v-10.667c2.667-2.667 6-2 8 0v11.333z"></path>
<path fill="#fff" d="M16.667 22.667c1.565-2.903 5.333-3.333 8-0.667v-10.667c-2.667-2.667-6-2-8 0v11.333z"></path>
</symbol>
<symbol id="icon-closeCross" viewBox="0 0 32 32">
<path d="M2.901 0.844c-0.866 0.324-1.799 1.28-2.076 2.132-0.149 0.46-0.092 1.028 0.16 1.543 0.197 0.405 0.311 0.524 5.728 5.948l5.525 5.532-5.525 5.532c-5.454 5.461-5.529 5.54-5.733 5.957-0.197 0.407-0.206 0.446-0.206 0.96 0 0.501 0.012 0.56 0.176 0.887 0.354 0.704 1.010 1.36 1.714 1.714 0.327 0.164 0.386 0.176 0.887 0.176 0.514 0 0.553-0.009 0.96-0.206 0.418-0.204 0.496-0.279 5.957-5.733l5.532-5.525 5.532 5.525c5.461 5.454 5.54 5.529 5.957 5.733 0.407 0.197 0.446 0.206 0.96 0.206 0.501 0 0.56-0.012 0.887-0.176 0.453-0.228 0.939-0.622 1.273-1.035 0.146-0.18 0.343-0.485 0.441-0.679 0.164-0.327 0.176-0.386 0.176-0.887 0-0.514-0.009-0.553-0.206-0.96-0.204-0.418-0.279-0.496-5.733-5.957l-5.525-5.532 5.525-5.532c5.454-5.461 5.529-5.54 5.733-5.957 0.197-0.407 0.206-0.446 0.206-0.96 0-0.501-0.012-0.56-0.176-0.887-0.354-0.704-1.010-1.36-1.714-1.714-0.327-0.164-0.386-0.176-0.887-0.176-0.514 0-0.553 0.009-0.96 0.206-0.418 0.204-0.496 0.279-5.957 5.733l-5.532 5.525-5.532-5.525c-5.438-5.429-5.541-5.531-5.952-5.73-0.37-0.18-0.473-0.206-0.88-0.222-0.356-0.012-0.526 0.007-0.734 0.084z"></path>
</symbol>
</defs>
</svg>